<?xml version="1.0" standalone="yes"?>
<svg width="253" height="267">
<path style="fill:#ffffff; stroke:none;" d="M0 0L0 267L253 267L253 0L0 0z"/>
<path style="fill:#b3b3b3; stroke:none;" d="M71.6667 17.3333L72.3333 17.6667L71.6667 17.3333z"/>
<path style="fill:#757575; stroke:none;" d="M73.6667 17.3333L74.3333 17.6667L73.6667 17.3333z"/>
<path style="fill:#575757; stroke:none;" d="M75 17L78 18L75 17z"/>
<path style="fill:#151515; stroke:none;" d="M15 102L15 116L31 117.055C42.552 120.649 44.9958 131.207 45 142C45.0058 157.118 41.7119 178.861 50.966 191.907C59.0023 203.236 79.7691 202 92 202L92 188C84.9437 188 76.2944 189.108 70.0185 185.146C63.1725 180.824 63.0028 172.219 63 165C62.9949 151.667 65.0174 135.767 60.4514 123C57.2694 114.103 50.2093 113.48 44 108C68.0994 105.532 62.9934 71.0697 63 54C63.0023 47.9766 62.9351 40.885 67.2785 36.1335C73.2687 29.5807 84.0136 31 92 31L92 17C79.129 17 58.2549 15.8457 50.1335 28.0401C41.5765 40.8886 45.0235 62.3659 45 77C44.9823 88.038 41.8146 98.1929 30 101.239L15 102M161 17L161 31C169.124 31 179.612 29.4666 185.722 36.1335C190.204 41.0233 190 47.8219 190 54C190.001 71.0692 184.905 105.532 209 108C202.791 113.48 195.731 114.103 192.549 123C187.983 135.767 190.005 151.667 190 165C189.997 172.219 189.827 180.824 182.981 185.146C176.706 189.108 168.056 188 161 188L161 202C173.13 202 194.106 203.084 202.034 191.907C211.288 178.861 207.994 157.118 208 142C208.004 131.207 210.448 120.649 222 117.055L238 116L238 102L223 101.239C211.185 98.1929 208.018 88.038 208 77C207.976 62.2516 211.355 41.0191 202.867 28.0154C194.874 15.771 173.825 17 161 17z"/>
<path style="fill:#484848; stroke:none;" d="M174 17L177 18L174 17z"/>
<path style="fill:#757575; stroke:none;" d="M177 17L180 18L177 17z"/>
<path style="fill:#cacaca; stroke:none;" d="M180.667 17.3333L181.333 17.6667L180.667 17.3333z"/>
<path style="fill:#757575; stroke:none;" d="M66 18L69 19L66 18z"/>
<path style="fill:#989898; stroke:none;" d="M185 18L188 19L185 18M62 19L63 20L62 19z"/>
<path style="fill:#575757; stroke:none;" d="M63 19L64 20L63 19z"/>
<path style="fill:#4e4e4e; stroke:none;" d="M189 19L190 20L189 19z"/>
<path style="fill:#989898; stroke:none;" d="M190 19L191 20L190 19z"/>
<path style="fill:#a2a2a2; stroke:none;" d="M59 20L60 21L59 20z"/>
<path style="fill:#989898; stroke:none;" d="M193 20L194 21L193 20z"/>
<path style="fill:#828282; stroke:none;" d="M57 21L58 22L57 21z"/>
<path style="fill:#757575; stroke:none;" d="M195 21L196 22L195 21z"/>
<path style="fill:#8d8d8d; stroke:none;" d="M55 22L56 23L55 22z"/>
<path style="fill:#828282; stroke:none;" d="M197 22L198 23L197 22z"/>
<path style="fill:#484848; stroke:none;" d="M54 23L55 24L54 23z"/>
<path style="fill:#757575; stroke:none;" d="M50 27L51 28L50 27z"/>
<path style="fill:#686868; stroke:none;" d="M202 27L203 28L202 27z"/>
<path style="fill:#c0c0c0; stroke:none;" d="M49 28L50 29L49 28M203 28L204 29L203 28M48 30L49 31L48 30M204 30L205 31L204 30z"/>
<path style="fill:#8d8d8d; stroke:none;" d="M76.6667 31.3333L77.3333 31.6667L76.6667 31.3333z"/>
<path style="fill:#c0c0c0; stroke:none;" d="M78 31L81 32L78 31z"/>
<path style="fill:#cacaca; stroke:none;" d="M172 31L175 32L172 31z"/>
<path style="fill:#757575; stroke:none;" d="M175 31L178 32L175 31z"/>
<path style="fill:#8d8d8d; stroke:none;" d="M72 32L73 33L72 32z"/>
<path style="fill:#989898; stroke:none;" d="M180 32L181 33L180 32z"/>
<path style="fill:#8d8d8d; stroke:none;" d="M47 33L48 34L47 33z"/>
<path style="fill:#575757; stroke:none;" d="M69 33L70 34L69 33z"/>
<path style="fill:#686868; stroke:none;" d="M183 33L184 34L183 33z"/>
<path style="fill:#8d8d8d; stroke:none;" d="M205 33L206 34L205 33z"/>
<path style="fill:#c0c0c0; stroke:none;" d="M68 34L69 35L68 34z"/>
<path style="fill:#cacaca; stroke:none;" d="M184 34L185 35L184 34z"/>
<path style="fill:#b3b3b3; stroke:none;" d="M46 36L47 37L46 36z"/>
<path style="fill:#c0c0c0; stroke:none;" d="M66 36L67 37L66 36z"/>
<path style="fill:#cacaca; stroke:none;" d="M186 36L187 37L186 36z"/>
<path style="fill:#b3b3b3; stroke:none;" d="M206 36L207 37L206 36z"/>
<path style="fill:#757575; stroke:none;" d="M46 37L47 38L46 37z"/>
<path style="fill:#575757; stroke:none;" d="M65 37L66 38L65 37z"/>
<path style="fill:#686868; stroke:none;" d="M187 37L188 38L187 37z"/>
<path style="fill:#757575; stroke:none;" d="M206 37L207 38L206 37z"/>
<path style="fill:#8d8d8d; stroke:none;" d="M64 40L65 41L64 40M188 40L189 41L188 40z"/>
<path style="fill:#989898; stroke:none;" d="M45.3333 41.6667L45.6667 42.3333L45.3333 41.6667M207.333 41.6667L207.667 42.3333L207.333 41.6667z"/>
<path style="fill:#686868; stroke:none;" d="M45 43L45 46L45 43z"/>
<path style="fill:#757575; stroke:none;" d="M189 43L189 46L189 43z"/>
<path style="fill:#686868; stroke:none;" d="M207 43L207 46L207 43z"/>
<path style="fill:#8d8d8d; stroke:none;" d="M63.3333 44.6667L63.6667 45.3333L63.3333 44.6667z"/>
<path style="fill:#cacaca; stroke:none;" d="M63 46L63 49L63 46M189 46L189 49L189 46M44 80L44 83L44 80z"/>
<path style="fill:#b3b3b3; stroke:none;" d="M208 81L208 84L208 81z"/>
<path style="fill:#3a3a3a; stroke:none;" d="M62 82L62 85L62 82M190 82L190 85L190 82z"/>
<path style="fill:#757575; stroke:none;" d="M44 83L44 86L44 83z"/>
<path style="fill:#575757; stroke:none;" d="M208.333 84.6667L208.667 85.3333L208.333 84.6667z"/>
<path style="fill:#828282; stroke:none;" d="M62 85L62 88L62 85z"/>
<path style="fill:#757575; stroke:none;" d="M190 85L190 88L190 85z"/>
<path style="fill:#b3b3b3; stroke:none;" d="M43 88L44 89L43 88M209 88L210 89L209 88z"/>
<path style="fill:#686868; stroke:none;" d="M43 89L44 90L43 89M209 89L210 90L209 89z"/>
<path style="fill:#c0c0c0; stroke:none;" d="M42 91L43 92L42 91z"/>
<path style="fill:#4e4e4e; stroke:none;" d="M61 91L62 92L61 91z"/>
<path style="fill:#484848; stroke:none;" d="M191 91L192 92L191 91z"/>
<path style="fill:#c0c0c0; stroke:none;" d="M210 91L211 92L210 91z"/>
<path style="fill:#575757; stroke:none;" d="M42 92L43 93L42 92z"/>
<path style="fill:#8d8d8d; stroke:none;" d="M61 92L62 93L61 92z"/>
<path style="fill:#828282; stroke:none;" d="M191 92L192 93L191 92z"/>
<path style="fill:#4e4e4e; stroke:none;" d="M210 92L211 93L210 92z"/>
<path style="fill:#cacaca; stroke:none;" d="M61 93L62 94L61 93M191 93L192 94L191 93z"/>
<path style="fill:#8d8d8d; stroke:none;" d="M40 95L41 96L40 95z"/>
<path style="fill:#686868; stroke:none;" d="M60 95L61 96L60 95M192 95L193 96L192 95z"/>
<path style="fill:#8d8d8d; stroke:none;" d="M212 95L213 96L212 95z"/>
<path style="fill:#b3b3b3; stroke:none;" d="M39 96L40 97L39 96M213 96L214 97L213 96z"/>
<path style="fill:#a2a2a2; stroke:none;" d="M38 97L39 98L38 97z"/>
<path style="fill:#989898; stroke:none;" d="M214 97L215 98L214 97z"/>
<path style="fill:#575757; stroke:none;" d="M37 98L38 99L37 98z"/>
<path style="fill:#c0c0c0; stroke:none;" d="M59 98L60 99L59 98M193 98L194 99L193 98z"/>
<path style="fill:#4e4e4e; stroke:none;" d="M215 98L216 99L215 98z"/>
<path style="fill:#757575; stroke:none;" d="M35 99L36 100L35 99z"/>
<path style="fill:#575757; stroke:none;" d="M58 99L59 100L58 99z"/>
<path style="fill:#4e4e4e; stroke:none;" d="M194 99L195 100L194 99z"/>
<path style="fill:#757575; stroke:none;" d="M217 99L218 100L217 99z"/>
<path style="fill:#989898; stroke:none;" d="M32 100L33 101L32 100M220 100L221 101L220 100z"/>
<path style="fill:#b3b3b3; stroke:none;" d="M25 101L28 102L25 101z"/>
<path style="fill:#4e4e4e; stroke:none;" d="M28.6667 101.333L29.3333 101.667L28.6667 101.333z"/>
<path style="fill:#c0c0c0; stroke:none;" d="M57 101L58 102L57 101z"/>
<path style="fill:#b3b3b3; stroke:none;" d="M195 101L196 102L195 101z"/>
<path style="fill:#757575; stroke:none;" d="M223.667 101.333L224.333 101.667L223.667 101.333z"/>
<path style="fill:#b3b3b3; stroke:none;" d="M225 101L228 102L225 101M56 102L57 103L56 102z"/>
<path style="fill:#a2a2a2; stroke:none;" d="M196 102L197 103L196 102z"/>
<path style="fill:#b3b3b3; stroke:none;" d="M55 103L56 104L55 103M197 103L198 104L197 103z"/>
<path style="fill:#757575; stroke:none;" d="M52 105L53 106L52 105M200 105L201 106L200 105z"/>
<path style="fill:#686868; stroke:none;" d="M50 106L51 107L50 106M202 106L203 107L202 106z"/>
<path style="fill:#828282; stroke:none;" d="M48 107L49 108L48 107M204 107L205 108L204 107z"/>
<path style="fill:#575757; stroke:none;" d="M44.3333 108.667L44.6667 109.333L44.3333 108.667z"/>
<path style="fill:#a2a2a2; stroke:none;" d="M45.3333 108.667L45.6667 109.333L45.3333 108.667M207.333 108.667L207.667 109.333L207.333 108.667z"/>
<path style="fill:#575757; stroke:none;" d="M208.333 108.667L208.667 109.333L208.333 108.667z"/>
<path style="fill:#4e4e4e; stroke:none;" d="M47 110L48 111L47 110z"/>
<path style="fill:#b3b3b3; stroke:none;" d="M48 110L49 111L48 110M204 110L205 111L204 110z"/>
<path style="fill:#575757; stroke:none;" d="M205 110L206 111L205 110z"/>
<path style="fill:#989898; stroke:none;" d="M50 111L51 112L50 111z"/>
<path style="fill:#a2a2a2; stroke:none;" d="M202 111L203 112L202 111z"/>
<path style="fill:#b3b3b3; stroke:none;" d="M52 112L53 113L52 112z"/>
<path style="fill:#c0c0c0; stroke:none;" d="M200 112L201 113L200 112z"/>
<path style="fill:#686868; stroke:none;" d="M53 113L54 114L53 113M199 113L200 114L199 113z"/>
<path style="fill:#b3b3b3; stroke:none;" d="M25 116L28 117L25 116z"/>
<path style="fill:#484848; stroke:none;" d="M28.6667 116.333L29.3333 116.667L28.6667 116.333z"/>
<path style="fill:#757575; stroke:none;" d="M223.667 116.333L224.333 116.667L223.667 116.333z"/>
<path style="fill:#b3b3b3; stroke:none;" d="M225.667 116.333L226.333 116.667L225.667 116.333z"/>
<path style="fill:#8d8d8d; stroke:none;" d="M32 117L33 118L32 117M220 117L221 118L220 117z"/>
<path style="fill:#575757; stroke:none;" d="M35 118L36 119L35 118z"/>
<path style="fill:#828282; stroke:none;" d="M58 118L59 119L58 118z"/>
<path style="fill:#8d8d8d; stroke:none;" d="M194 118L195 119L194 118z"/>
<path style="fill:#686868; stroke:none;" d="M217 118L218 119L217 118z"/>
<path style="fill:#757575; stroke:none;" d="M38 120L39 121L38 120z"/>
<path style="fill:#686868; stroke:none;" d="M59 120L60 121L59 120M193 120L194 121L193 120z"/>
<path style="fill:#828282; stroke:none;" d="M214 120L215 121L214 120z"/>
<path style="fill:#8d8d8d; stroke:none;" d="M39 121L40 122L39 121z"/>
<path style="fill:#989898; stroke:none;" d="M213 121L214 122L213 121z"/>
<path style="fill:#686868; stroke:none;" d="M40 122L41 123L40 122z"/>
<path style="fill:#8d8d8d; stroke:none;" d="M60 122L61 123L60 122M192 122L193 123L192 122z"/>
<path style="fill:#757575; stroke:none;" d="M212 122L213 123L212 122z"/>
<path style="fill:#b3b3b3; stroke:none;" d="M41 124L42 125L41 124z"/>
<path style="fill:#c0c0c0; stroke:none;" d="M211 124L212 125L211 124z"/>
<path style="fill:#a2a2a2; stroke:none;" d="M61 125L62 126L61 125M191 125L192 126L191 125M42 126L43 127L42 126z"/>
<path style="fill:#686868; stroke:none;" d="M61 126L62 127L61 126M191 126L192 127L191 126z"/>
<path style="fill:#b3b3b3; stroke:none;" d="M210 126L211 127L210 126z"/>
<path style="fill:#575757; stroke:none;" d="M43 128L44 129L43 128M209 128L210 129L209 128z"/>
<path style="fill:#a2a2a2; stroke:none;" d="M43 129L44 130L43 129M62.3333 129.667L62.6667 130.333L62.3333 129.667M190.333 129.667L190.667 130.333L190.333 129.667M209 129L210 130L209 129z"/>
<path style="fill:#686868; stroke:none;" d="M62.3333 131.667L62.6667 132.333L62.3333 131.667M190.333 131.667L190.667 132.333L190.333 131.667M44.3333 132.667L44.6667 133.333L44.3333 132.667z"/>
<path style="fill:#832929; stroke:none;" d="M80 132L80 146L120 146L120 132L80 132M134 132L134 146L174 146L174 132L134 132z"/>
<path style="fill:#757575; stroke:none;" d="M208.333 132.667L208.667 133.333L208.333 132.667z"/>
<path style="fill:#3a3a3a; stroke:none;" d="M62 133L62 136L62 133M190 133L190 136L190 133z"/>
<path style="fill:#b3b3b3; stroke:none;" d="M44 134L44 137L44 134M208 134L208 137L208 134z"/>
<path style="fill:#151515; stroke:none;" d="M120 159L120 253L134 253L134 159L120 159z"/>
<path style="fill:#c0c0c0; stroke:none;" d="M63 170L63 173L63 170M189 170L189 173L189 170z"/>
<path style="fill:#3a3a3a; stroke:none;" d="M45 171L45 174L45 171M207 171L207 174L207 171z"/>
<path style="fill:#686868; stroke:none;" d="M63.3333 173.667L63.6667 174.333L63.3333 173.667M189.333 173.667L189.667 174.333L189.333 173.667z"/>
<path style="fill:#828282; stroke:none;" d="M45 174L45 177L45 174M207 174L207 177L207 174z"/>
<path style="fill:#cacaca; stroke:none;" d="M64 177L65 178L64 177M188 177L189 178L188 177z"/>
<path style="fill:#828282; stroke:none;" d="M64 178L65 179L64 178M188 178L189 179L188 178z"/>
<path style="fill:#cacaca; stroke:none;" d="M65 180L66 181L65 180M187 180L188 181L187 180z"/>
<path style="fill:#828282; stroke:none;" d="M46 181L47 182L46 181z"/>
<path style="fill:#4e4e4e; stroke:none;" d="M65 181L66 182L65 181M187 181L188 182L187 181z"/>
<path style="fill:#828282; stroke:none;" d="M206 181L207 182L206 181z"/>
<path style="fill:#c0c0c0; stroke:none;" d="M46 182L47 183L46 182z"/>
<path style="fill:#b3b3b3; stroke:none;" d="M66 182L67 183L66 182M186 182L187 183L186 182z"/>
<path style="fill:#c0c0c0; stroke:none;" d="M206 182L207 183L206 182z"/>
<path style="fill:#b3b3b3; stroke:none;" d="M68 184L69 185L68 184M184 184L185 185L184 184z"/>
<path style="fill:#a2a2a2; stroke:none;" d="M47 185L48 186L47 185z"/>
<path style="fill:#4e4e4e; stroke:none;" d="M69 185L70 186L69 185M183 185L184 186L183 185z"/>
<path style="fill:#a2a2a2; stroke:none;" d="M205 185L206 186L205 185z"/>
<path style="fill:#828282; stroke:none;" d="M72 186L73 187L72 186M180 186L181 187L180 186z"/>
<path style="fill:#575757; stroke:none;" d="M48 187L49 188L48 187z"/>
<path style="fill:#8d8d8d; stroke:none;" d="M76.6667 187.333L77.3333 187.667L76.6667 187.333z"/>
<path style="fill:#cacaca; stroke:none;" d="M78 187L81 188L78 187M172 187L175 188L172 187z"/>
<path style="fill:#686868; stroke:none;" d="M175.667 187.333L176.333 187.667L175.667 187.333z"/>
<path style="fill:#575757; stroke:none;" d="M204 187L205 188L204 187z"/>
<path style="fill:#4e4e4e; stroke:none;" d="M49 189L50 190L49 189M203 189L204 190L203 189z"/>
<path style="fill:#828282; stroke:none;" d="M50 191L51 192L50 191M202 191L203 192L202 191z"/>
<path style="fill:#575757; stroke:none;" d="M54 195L55 196L54 195M198 195L199 196L198 195z"/>
<path style="fill:#a2a2a2; stroke:none;" d="M55 196L56 197L55 196M197 196L198 197L197 196z"/>
<path style="fill:#8d8d8d; stroke:none;" d="M57 197L58 198L57 197M195 197L196 198L195 197z"/>
<path style="fill:#a2a2a2; stroke:none;" d="M59 198L60 199L59 198z"/>
<path style="fill:#484848; stroke:none;" d="M60 198L61 199L60 198M192 198L193 199L192 198z"/>
<path style="fill:#a2a2a2; stroke:none;" d="M193 198L194 199L193 198M62 199L63 200L62 199z"/>
<path style="fill:#575757; stroke:none;" d="M63 199L64 200L63 199M189 199L190 200L189 199z"/>
<path style="fill:#a2a2a2; stroke:none;" d="M190 199L191 200L190 199z"/>
<path style="fill:#757575; stroke:none;" d="M66 200L69 201L66 200M184 200L187 201L184 200z"/>
<path style="fill:#b3b3b3; stroke:none;" d="M71.6667 201.333L72.3333 201.667L71.6667 201.333z"/>
<path style="fill:#757575; stroke:none;" d="M73.6667 201.333L74.3333 201.667L73.6667 201.333z"/>
<path style="fill:#575757; stroke:none;" d="M75.6667 201.333L76.3333 201.667L75.6667 201.333z"/>
<path style="fill:#3a3a3a; stroke:none;" d="M173 201L176 202L173 201z"/>
<path style="fill:#686868; stroke:none;" d="M176 201L179 202L176 201z"/>
<path style="fill:#b3b3b3; stroke:none;" d="M179 201L182 202L179 201z"/>
</svg>
